<svg width="20" height="20" viewBox="0 0 20 20" fill="none" xmlns="http://www.w3.org/2000/svg">
<path fill-rule="evenodd" clip-rule="evenodd" d="M9.61625 0C8.03558 0 6.51965 0.627919 5.40195 1.74562C4.28425 2.86332 3.65633 4.37925 3.65633 5.95992C3.65633 8.96346 3.01359 10.8468 2.40727 11.9584C2.10321 12.5159 1.8048 12.8858 1.59257 13.1098C1.48628 13.222 1.40117 13.2981 1.3472 13.343C1.3202 13.3655 1.30097 13.3803 1.29076 13.3879L1.28272 13.3937C1.04933 13.5529 0.945861 13.8454 1.02788 14.1162C1.11056 14.3893 1.36224 14.5761 1.64755 14.5761H17.585C17.8703 14.5761 18.122 14.3893 18.2046 14.1162C18.2866 13.8454 18.1832 13.5529 17.9498 13.3937L17.9417 13.3879C17.9315 13.3803 17.9123 13.3655 17.8853 13.343C17.8313 13.2981 17.7462 13.222 17.6399 13.1098C17.4277 12.8858 17.1293 12.5159 16.8252 11.9584C16.2189 10.8468 15.5762 8.96346 15.5762 5.95992C15.5762 4.37925 14.9483 2.86332 13.8306 1.74562C12.7129 0.627919 11.1969 0 9.61625 0ZM15.6884 12.5785C15.8334 12.8442 15.9792 13.0775 16.1204 13.2812H3.11211C3.25329 13.0775 3.39914 12.8442 3.54407 12.5785C4.26586 11.2552 4.95124 9.15426 4.95124 5.95992C4.95124 4.72269 5.44273 3.53612 6.31759 2.66126C7.19245 1.7864 8.37901 1.29491 9.61625 1.29491C10.8535 1.29491 12.0401 1.7864 12.9149 2.66126C13.7898 3.53612 14.2813 4.72269 14.2813 5.95992C14.2813 9.15426 14.9666 11.2552 15.6884 12.5785ZM8.64453 17.1454C8.46511 16.8361 8.06891 16.7308 7.75961 16.9102C7.4503 17.0896 7.34501 17.4858 7.52443 17.7951C7.73701 18.1616 8.04213 18.4658 8.40925 18.6772C8.77636 18.8887 9.19259 19 9.61624 19C10.0399 19 10.4561 18.8887 10.8232 18.6772C11.1904 18.4658 11.4955 18.1616 11.7081 17.7951C11.8875 17.4858 11.7822 17.0896 11.4729 16.9102C11.1636 16.7308 10.7674 16.8361 10.588 17.1454C10.4892 17.3156 10.3475 17.4569 10.1769 17.5552C10.0064 17.6534 9.81305 17.7051 9.61624 17.7051C9.41944 17.7051 9.22609 17.6534 9.05556 17.5552C8.88502 17.4569 8.74328 17.3156 8.64453 17.1454Z" fill="black"/>
</svg>
