<svg width="20" height="20" viewBox="0 0 20 20" fill="none" xmlns="http://www.w3.org/2000/svg">
<path fill-rule="evenodd" clip-rule="evenodd" d="M0.65 3C0.291015 3 0 3.29101 0 3.65C0 4.00899 0.291015 4.3 0.65 4.3H19.2061C19.565 4.3 19.8561 4.00899 19.8561 3.65C19.8561 3.29101 19.565 3 19.2061 3H0.65ZM0.65 7.1236C0.291015 7.1236 0 7.41462 0 7.7736C0 8.13259 0.291015 8.4236 0.65 8.4236H15.0825C15.4415 8.4236 15.7325 8.13259 15.7325 7.7736C15.7325 7.41462 15.4415 7.1236 15.0825 7.1236H0.65ZM0 11.8972C0 11.5382 0.291015 11.2472 0.65 11.2472H19.2061C19.565 11.2472 19.8561 11.5382 19.8561 11.8972C19.8561 12.2561 19.565 12.5472 19.2061 12.5472H0.65C0.291015 12.5472 0 12.2561 0 11.8972ZM0.65 15.3707C0.291015 15.3707 0 15.6617 0 16.0207C0 16.3797 0.291015 16.6707 0.65 16.6707H15.0825C15.4415 16.6707 15.7325 16.3797 15.7325 16.0207C15.7325 15.6617 15.4415 15.3707 15.0825 15.3707H0.65Z" fill="black"/>
</svg>
