<svg width="20" height="20" viewBox="0 0 20 20" fill="none" xmlns="http://www.w3.org/2000/svg">
<path fill-rule="evenodd" clip-rule="evenodd" d="M7.45435 2.11112C7.26912 2.11112 7.09615 2.20369 6.99341 2.35781L5.46055 4.65708H2.36241C1.76533 4.65708 1.19271 4.89427 0.770506 5.31647C0.348306 5.73867 0.111116 6.3113 0.111116 6.90838V16.2436C0.111116 16.8407 0.348306 17.4133 0.770506 17.8355C1.19271 18.2577 1.76533 18.4949 2.36241 18.4949H17.6382C18.2353 18.4949 18.8079 18.2577 19.2301 17.8355C19.6523 17.4133 19.8895 16.8407 19.8895 16.2436V6.90838C19.8895 6.3113 19.6523 5.73867 19.2301 5.31647C18.8079 4.89427 18.2353 4.65708 17.6382 4.65708H14.5401L13.0072 2.35781C12.9045 2.20369 12.7315 2.11112 12.5463 2.11112H7.45435ZM6.21798 5.51836L7.75083 3.21908H12.2498L13.7827 5.51836C13.8854 5.67248 14.0584 5.76505 14.2436 5.76505H17.6382C17.9415 5.76505 18.2323 5.88551 18.4467 6.09993C18.6611 6.31434 18.7816 6.60515 18.7816 6.90838V16.2436C18.7816 16.5468 18.6611 16.8376 18.4467 17.0521C18.2323 17.2665 17.9415 17.3869 17.6382 17.3869H2.36241C2.05918 17.3869 1.76837 17.2665 1.55396 17.0521C1.33954 16.8376 1.21908 16.5468 1.21908 16.2436V6.90838C1.21908 6.60515 1.33954 6.31434 1.55396 6.09993C1.76837 5.88551 2.05918 5.76505 2.36241 5.76505H5.75704C5.94226 5.76505 6.11524 5.67248 6.21798 5.51836ZM7.15968 11.1517C7.15968 9.58282 8.43148 8.31102 10.0003 8.31102C11.5692 8.31102 12.841 9.58282 12.841 11.1517C12.841 12.7205 11.5692 13.9923 10.0003 13.9923C8.43148 13.9923 7.15968 12.7205 7.15968 11.1517ZM10.0003 7.20305C7.81957 7.20305 6.05172 8.97091 6.05172 11.1517C6.05172 13.3324 7.81957 15.1003 10.0003 15.1003C12.1811 15.1003 13.9489 13.3324 13.9489 11.1517C13.9489 8.97091 12.1811 7.20305 10.0003 7.20305ZM6.9009 2.29603C7.02419 2.11109 7.23176 2 7.45403 2H12.546C12.7682 2 12.9758 2.11109 13.0991 2.29603L14.5991 4.54597H17.6379C18.2644 4.54597 18.8652 4.79483 19.3082 5.23781C19.7511 5.68079 20 6.2816 20 6.90806V16.2433C20 16.8697 19.7511 17.4706 19.3082 17.9135C18.8652 18.3565 18.2644 18.6054 17.6379 18.6054H2.36209C1.73563 18.6054 1.13482 18.3565 0.691841 17.9135C0.248863 17.4706 0 16.8697 0 16.2433V6.90806C0 6.2816 0.248863 5.68079 0.691841 5.23781C1.13482 4.79483 1.73563 4.54597 2.36209 4.54597H5.40094L6.9009 2.29603ZM5.46024 4.65677L6.99309 2.35749C7.09583 2.20337 7.2688 2.1108 7.45403 2.1108H12.546C12.7312 2.1108 12.9042 2.20337 13.0069 2.35749L14.5398 4.65677H17.6379C18.235 4.65677 18.8076 4.89395 19.2298 5.31615C19.652 5.73835 19.8892 6.31098 19.8892 6.90806V16.2433C19.8892 16.8404 19.652 17.413 19.2298 17.8352C18.8076 18.2574 18.235 18.4946 17.6379 18.4946H2.36209C1.76501 18.4946 1.19239 18.2574 0.770186 17.8352C0.347986 17.413 0.110797 16.8404 0.110797 16.2433V6.90806C0.110797 6.31098 0.347986 5.73836 0.770186 5.31615C1.19239 4.89395 1.76501 4.65677 2.36209 4.65677H5.46024ZM7.80981 3.32956L6.30985 5.5795C6.18656 5.76444 5.97899 5.87553 5.75672 5.87553H2.36209C2.08825 5.87553 1.82562 5.98431 1.63198 6.17795C1.43835 6.37159 1.32956 6.63422 1.32956 6.90806V16.2433C1.32956 16.5171 1.43835 16.7798 1.63198 16.9734C1.82562 17.167 2.08825 17.2758 2.36209 17.2758H17.6379C17.9118 17.2758 18.1744 17.167 18.368 16.9734C18.5617 16.7798 18.6704 16.5171 18.6704 16.2433V6.90806C18.6704 6.63422 18.5617 6.37159 18.368 6.17795C18.1744 5.98431 17.9118 5.87553 17.6379 5.87553H14.2433C14.021 5.87553 13.8134 5.76444 13.6902 5.5795L12.1902 3.32956H7.80981ZM7.75051 3.21876L6.21766 5.51804C6.11492 5.67216 5.94194 5.76473 5.75672 5.76473H2.36209C2.05886 5.76473 1.76805 5.88519 1.55364 6.09961C1.33922 6.31402 1.21876 6.60483 1.21876 6.90806V16.2433C1.21876 16.5465 1.33922 16.8373 1.55364 17.0517C1.76805 17.2662 2.05886 17.3866 2.36209 17.3866H17.6379C17.9411 17.3866 18.2319 17.2662 18.4464 17.0517C18.6608 16.8373 18.7812 16.5465 18.7812 16.2433V6.90806C18.7812 6.60483 18.6608 6.31402 18.4464 6.09961C18.2319 5.88519 17.9411 5.76473 17.6379 5.76473H14.2433C14.0581 5.76473 13.8851 5.67216 13.7823 5.51804L12.2495 3.21876H7.75051ZM10 8.4215C8.49235 8.4215 7.27016 9.64369 7.27016 11.1513C7.27016 12.659 8.49236 13.8812 10 13.8812C11.5077 13.8812 12.7298 12.659 12.7298 11.1513C12.7298 9.64369 11.5077 8.4215 10 8.4215ZM5.9406 11.1513C5.9406 8.9094 7.75806 7.09194 10 7.09194C12.242 7.09194 14.0594 8.9094 14.0594 11.1513C14.0594 13.3933 12.242 15.2108 10 15.2108C7.75806 15.2108 5.9406 13.3933 5.9406 11.1513ZM10 8.3107C8.43116 8.3107 7.15936 9.5825 7.15936 11.1513C7.15936 12.7202 8.43116 13.992 10 13.992C11.5688 13.992 12.8406 12.7202 12.8406 11.1513C12.8406 9.5825 11.5688 8.3107 10 8.3107ZM6.0514 11.1513C6.0514 8.97059 7.81925 7.20273 10 7.20273C12.1808 7.20273 13.9486 8.97059 13.9486 11.1513C13.9486 13.3321 12.1808 15.1 10 15.1C7.81925 15.1 6.0514 13.3321 6.0514 11.1513Z" fill="black"/>
</svg>
