<svg width="20" height="20" viewBox="0 0 20 20" fill="none" xmlns="http://www.w3.org/2000/svg">
<path fill-rule="evenodd" clip-rule="evenodd" d="M3.00402 15.4835C2.50694 14.8493 2.09736 14.1491 1.78774 13.4016C1.34103 12.3232 1.11111 11.1673 1.11111 10C1.11111 7.64252 2.04762 5.3816 3.71461 3.71461C5.3816 2.04762 7.64252 1.11111 10 1.11111C12.3575 1.11111 14.6184 2.04762 16.2854 3.71461C17.9524 5.3816 18.8889 7.64252 18.8889 10C18.8889 11.1673 18.659 12.3232 18.2123 13.4016C17.9027 14.1491 17.4931 14.8492 16.9961 15.4833C14.8796 14.4612 12.5062 13.889 10.0004 13.8889C10.0006 13.8889 10.0007 13.8889 10.0008 13.8889L10 14.4444V13.8889C10.0001 13.8889 10.0003 13.8889 10.0004 13.8889C7.57335 13.8853 5.18176 14.4324 3.00402 15.4835ZM2.7363 16.873C2.60575 16.7351 2.4793 16.5936 2.35705 16.4487C2.35653 16.4481 2.35602 16.4474 2.3555 16.4468C2.23651 16.3057 2.12151 16.1614 2.01064 16.0142C1.50474 15.3421 1.08453 14.6074 0.761205 13.8268C0.258658 12.6136 0 11.3132 0 10C0 7.34784 1.05357 4.8043 2.92893 2.92893C4.8043 1.05357 7.34784 0 10 0C12.6522 0 15.1957 1.05357 17.0711 2.92893C18.9464 4.8043 20 7.34784 20 10C20 11.3132 19.7413 12.6136 19.2388 13.8268C18.9155 14.6074 18.4953 15.3421 17.9894 16.0142C17.8785 16.1614 17.7635 16.3057 17.6445 16.4468C17.644 16.4475 17.6435 16.4481 17.6429 16.4487C17.5207 16.5935 17.3943 16.7351 17.2637 16.873C17.2005 16.9399 17.1362 17.0059 17.0711 17.0711C16.1425 17.9997 15.0401 18.7363 13.8268 19.2388C12.6136 19.7413 11.3132 20 10 20C8.68678 20 7.38642 19.7413 6.17317 19.2388C4.95991 18.7363 3.85752 17.9997 2.92893 17.0711C2.86377 17.0059 2.79956 16.9399 2.7363 16.873ZM16.2227 16.3475C15.4105 17.1437 14.4529 17.7768 13.4016 18.2123C12.3232 18.659 11.1673 18.8889 10 18.8889C8.8327 18.8889 7.67682 18.659 6.59837 18.2123C5.54721 17.7769 4.58968 17.1438 3.77757 16.3477C5.72584 15.4585 7.84753 14.9967 9.99916 15H10C12.2206 15 14.3274 15.482 16.2227 16.3475ZM11.9642 9.74196C12.4851 9.22103 12.7778 8.51449 12.7778 7.77778C12.7778 7.04107 12.4851 6.33453 11.9642 5.81359C11.4433 5.29266 10.7367 5 10 5C9.26329 5 8.55675 5.29266 8.03581 5.81359C7.51488 6.33453 7.22222 7.04107 7.22222 7.77778C7.22222 8.51449 7.51488 9.22103 8.03581 9.74196C8.55675 10.2629 9.26329 10.5556 10 10.5556C10.7367 10.5556 11.4433 10.2629 11.9642 9.74196ZM13.8889 7.77778C13.8889 8.80918 13.4792 9.79833 12.7499 10.5276C12.0206 11.2569 11.0314 11.6667 10 11.6667C8.9686 11.6667 7.97945 11.2569 7.25014 10.5276C6.52083 9.79833 6.11111 8.80918 6.11111 7.77778C6.11111 6.74638 6.52083 5.75723 7.25014 5.02792C7.97945 4.29861 8.9686 3.88889 10 3.88889C11.0314 3.88889 12.0206 4.29861 12.7499 5.02792C13.4792 5.75723 13.8889 6.74638 13.8889 7.77778Z" fill="black"/>
</svg>
