<svg width="20" height="20" viewBox="0 0 20 20" fill="none" xmlns="http://www.w3.org/2000/svg">
<g clip-path="url(#clip0_176_209)">
<path fill-rule="evenodd" clip-rule="evenodd" d="M16.7269 0C13.7653 0 11.5106 2.13786 11.5106 4.98771V8.51843C11.5106 9.17139 11.7534 9.61164 12.1473 9.92608C12.4872 10.1975 12.9332 10.3688 13.3881 10.5221V18.0039C13.3762 18.235 13.4199 18.4648 13.5153 18.6791C13.6114 18.8951 13.7575 19.0897 13.9423 19.2522C14.1271 19.4147 14.3471 19.5423 14.5882 19.629C14.8294 19.7156 15.0879 19.7599 15.3484 19.7599C15.6089 19.7599 15.8674 19.7156 16.1086 19.629C16.3497 19.5423 16.5698 19.4147 16.7545 19.2522C16.9393 19.0897 17.0854 18.8951 17.1815 18.6791C17.277 18.4648 17.3206 18.235 17.3088 18.0039V0H16.7269ZM12.6973 4.99413C12.6973 2.94143 14.1431 1.35272 16.1561 1.09168L16.1297 18.0174L16.1302 18.0254C16.1361 18.1056 16.1226 18.1868 16.0891 18.2647C16.0555 18.3428 16.0019 18.4171 15.9293 18.482C15.8566 18.5469 15.7667 18.6005 15.6643 18.6376C15.5618 18.6748 15.4503 18.6943 15.3369 18.6943C15.2235 18.6943 15.112 18.6748 15.0096 18.6376C14.9072 18.6005 14.8173 18.5469 14.7446 18.482C14.6719 18.4171 14.6184 18.3428 14.5848 18.2647C14.5513 18.1868 14.5377 18.1056 14.5436 18.0254L14.5442 18.0175V9.77628L14.0761 9.63899C13.516 9.45281 13.1742 9.3279 12.9647 9.16782C12.8671 9.09325 12.8043 9.01478 12.7635 8.92133C12.7216 8.82526 12.6973 8.70018 12.6973 8.52485V4.99413ZM6.88792 0.236792C6.80304 0.236792 6.71862 0.254434 6.64099 0.289106C6.56333 0.323792 6.49357 0.375063 6.43825 0.440457C6.38283 0.505956 6.34349 0.583826 6.32512 0.668453C6.30927 0.741488 6.3097 0.816605 6.32609 0.889069L6.32599 4.58251L6.32619 4.58907C6.33049 4.72986 6.39264 4.85974 6.49346 4.95477C6.59372 5.04926 6.72543 5.10394 6.86179 5.11254H6.87534C7.02105 5.11254 7.16464 5.06043 7.27364 4.96193C7.38337 4.86277 7.44975 4.72335 7.44975 4.57276V0.889072C7.46615 0.816606 7.46658 0.741488 7.45073 0.668453C7.43236 0.583824 7.39301 0.505955 7.3376 0.440457C7.28228 0.375064 7.21252 0.323792 7.13486 0.289106C7.05723 0.254434 6.9728 0.236792 6.88792 0.236792ZM5.07378 0.242955C4.98982 0.242955 4.90629 0.260217 4.82935 0.294156C4.75237 0.328108 4.68305 0.378312 4.62769 0.442425C4.57224 0.506638 4.53233 0.583104 4.51281 0.666479C4.49579 0.739179 4.49495 0.814254 4.51015 0.88697L4.51005 4.58245L4.51026 4.58916C4.51468 4.73088 4.57771 4.86144 4.67968 4.95653C4.78108 5.05108 4.91409 5.10507 5.0514 5.11248H5.06299C5.20871 5.11248 5.35229 5.06037 5.46129 4.96187C5.57102 4.86271 5.63741 4.72329 5.63741 4.57271V0.88697C5.6526 0.814256 5.65177 0.739181 5.63475 0.666479C5.61523 0.583102 5.57532 0.506636 5.51987 0.442425C5.46451 0.378312 5.39518 0.328108 5.31821 0.294156C5.24126 0.260217 5.15774 0.242955 5.07378 0.242955ZM3.23483 0.396244C3.11001 0.382872 2.98257 0.408141 2.87297 0.470163C2.76312 0.532322 2.67526 0.629369 2.62932 0.749071L2.62107 0.770551L2.05344 4.44934C1.91282 5.22088 2.05164 6.01191 2.44696 6.70393C2.82022 7.35734 3.40219 7.8879 4.11098 8.2295V18.222C4.09986 18.4535 4.14044 18.6841 4.22971 18.9C4.31968 19.1176 4.45691 19.3148 4.6318 19.4804C4.80663 19.6459 5.0156 19.7766 5.24549 19.8655C5.47536 19.9544 5.7221 20 5.97097 20C6.21984 20 6.46658 19.9544 6.69645 19.8655C6.92634 19.7766 7.13531 19.6459 7.31014 19.4804C7.48503 19.3148 7.62225 19.1176 7.71223 18.9C7.8015 18.6841 7.84208 18.4535 7.83096 18.222V8.22612C8.40112 7.95081 8.8916 7.55299 9.25797 7.06456C9.65163 6.53975 9.88799 5.92891 9.9411 5.29255L9.94137 5.28832C9.9591 5.0098 9.94253 4.73039 9.892 4.45532L9.30896 0.763971L9.29705 0.737617C9.24563 0.623778 9.15585 0.533261 9.04662 0.476512C8.93758 0.419864 8.81278 0.398512 8.6912 0.413962C8.56959 0.429415 8.45389 0.481405 8.36358 0.565637C8.2729 0.650208 8.21258 0.763199 8.19757 0.888167L8.19401 0.91781L8.77753 4.6128L8.77871 4.61908C8.81582 4.81587 8.82918 5.01559 8.8186 5.21483C8.78071 5.68278 8.59957 6.13425 8.29245 6.51856C7.98455 6.90386 7.56131 7.20684 7.06937 7.39056L6.71449 7.52418L6.71399 18.2274L6.71498 18.242C6.72073 18.3263 6.70739 18.4112 6.67519 18.4918C6.64295 18.5725 6.59213 18.6479 6.52453 18.7129C6.45688 18.7779 6.37398 18.8309 6.28034 18.8675C6.18668 18.9041 6.085 18.9232 5.98176 18.9232C5.87851 18.9232 5.77684 18.9041 5.68318 18.8675C5.58954 18.8309 5.50664 18.7779 5.43899 18.7129C5.37139 18.6479 5.32057 18.5725 5.28833 18.4918C5.25612 18.4112 5.24328 18.3263 5.24903 18.242V7.53718L4.89336 7.40326C4.56318 7.28043 4.26413 7.10086 4.01239 6.87572L4.00702 6.87123C3.48333 6.4327 3.16889 5.83496 3.11972 5.20172C3.10835 5.00347 3.12295 4.80469 3.16283 4.60928L3.74413 0.905933L3.74105 0.877589C3.72712 0.749324 3.66545 0.633274 3.57206 0.547155C3.47905 0.461402 3.35968 0.40962 3.23483 0.396244Z" fill="black"/>
</g>
<defs>
<clipPath id="clip0_176_209">
<rect width="20" height="20" fill="white"/>
</clipPath>
</defs>
</svg>
