<svg width="20" height="20" viewBox="0 0 20 20" fill="none" xmlns="http://www.w3.org/2000/svg">
<g clip-path="url(#clip0_176_179)">
<path fill-rule="evenodd" clip-rule="evenodd" d="M5.27726 3.27726C6.60731 1.94721 8.41124 1.2 10.2922 1.2C12.1732 1.2 13.9771 1.94721 15.3072 3.27726C16.6372 4.60731 17.3844 6.41124 17.3844 8.29222C17.3844 11.0425 15.6019 13.6739 13.7028 15.6786C12.7654 16.668 11.8261 17.4771 11.1204 18.0391C10.7798 18.3103 10.4948 18.523 10.2922 18.6697C10.0896 18.523 9.80463 18.3103 9.46406 18.0391C8.75836 17.4771 7.819 16.668 6.88168 15.6786C4.9825 13.6739 3.2 11.0425 3.2 8.29222C3.2 6.41124 3.94721 4.60731 5.27726 3.27726ZM10.625 19.9024L10.2922 19.4032C10.625 19.9024 10.6252 19.9023 10.6254 19.9022L10.6259 19.9018L10.6275 19.9008L10.6327 19.8973L10.6514 19.8846C10.6674 19.8738 10.6905 19.858 10.7202 19.8374C10.7796 19.7962 10.8655 19.736 10.974 19.6576C11.1911 19.5008 11.4991 19.2715 11.8679 18.9778C12.6045 18.3913 13.5882 17.5444 14.5739 16.5039C16.5208 14.4488 18.5844 11.5248 18.5844 8.29222C18.5844 6.09298 17.7108 3.98383 16.1557 2.42873C14.6006 0.873641 12.4914 0 10.2922 0C8.09298 0 5.98383 0.873641 4.42873 2.42873C2.87364 3.98383 2 6.09298 2 8.29222C2 11.5248 4.06361 14.4488 6.01054 16.5039C6.99627 17.5444 7.97996 18.3913 8.71655 18.9778C9.08532 19.2715 9.39337 19.5008 9.6104 19.6576C9.71894 19.736 9.8048 19.7962 9.86421 19.8374C9.89391 19.858 9.91701 19.8738 9.93303 19.8846L9.9517 19.8973L9.95694 19.9008L9.95852 19.9018L9.95905 19.9022C9.95924 19.9023 9.9594 19.9024 10.2922 19.4032L9.9594 19.9024C10.1609 20.0368 10.4235 20.0368 10.625 19.9024ZM8.32814 8.29217C8.32814 7.20744 9.20748 6.3281 10.2922 6.3281C11.3769 6.3281 12.2563 7.20744 12.2563 8.29217C12.2563 9.3769 11.3769 10.2562 10.2922 10.2562C9.20748 10.2562 8.32814 9.3769 8.32814 8.29217ZM10.2922 5.1281C8.54474 5.1281 7.12814 6.5447 7.12814 8.29217C7.12814 10.0396 8.54474 11.4562 10.2922 11.4562C12.0397 11.4562 13.4563 10.0396 13.4563 8.29217C13.4563 6.5447 12.0397 5.1281 10.2922 5.1281Z" fill="black"/>
</g>
<defs>
<clipPath id="clip0_176_179">
<rect width="20" height="20" fill="white"/>
</clipPath>
</defs>
</svg>
