<svg width="60" height="35" viewBox="0 0 60 35" fill="none" xmlns="http://www.w3.org/2000/svg">
<mask id="mask0_415_271" style="mask-type:alpha" maskUnits="userSpaceOnUse" x="0" y="19" width="35" height="16">
<path d="M0.0460918 28.6685C0.386145 26.5159 1.58558 23.7586 4.15795 23.0563C7.59781 22.1157 12.0717 24.537 14.119 26.5109C14.119 26.5109 15.9939 28.2806 7.05534 32.3652C5.41407 33.0663 2.99322 33.297 2.30848 33.1208C0.971405 32.7785 0.470579 31.8505 0.214962 31.2788C-0.0429696 30.707 -0.02562 29.1224 0.0460918 28.6685ZM15.2825 28.1627C14.7493 26.5223 16.8093 24.9681 19.0798 22.3046C21.3503 19.6411 26.6188 18.2238 31.2743 23.2325C35.9297 28.2413 34.3833 32.3995 32.5651 33.7255C30.7468 35.0503 28.0137 35.0274 24.8688 34.2643C22.2247 33.6228 15.8157 29.8032 15.2825 28.1627Z" fill="white"/>
</mask>
<g mask="url(#mask0_415_271)">
<path fill-rule="evenodd" clip-rule="evenodd" d="M-0.0811768 34.8449H60V-0.0174561H-0.0811768V34.8449Z" fill="url(#paint0_linear_415_271)"/>
</g>
<mask id="mask1_415_271" style="mask-type:alpha" maskUnits="userSpaceOnUse" x="0" y="18" width="34" height="17">
<path d="M1.01074 31.1508C0.90664 30.56 0.845338 29.9591 0.852278 29.3557C0.863845 28.7548 0.94828 28.1501 1.1264 27.5821C1.24901 27.1917 1.41903 26.8088 1.63532 26.4551C1.85162 26.1014 2.11302 25.7794 2.40449 25.5018C2.70753 25.2127 3.04296 24.9706 3.38995 24.769C3.7381 24.5675 4.0955 24.4039 4.45406 24.2657C5.0451 24.0376 5.65928 23.8753 6.27808 23.7523C6.29543 23.7485 6.31625 23.746 6.3336 23.7447H6.33823C6.90036 23.7067 7.45555 23.7536 7.99107 23.8512C8.52544 23.9526 9.04362 24.1009 9.54097 24.2746C10.5357 24.6258 11.4541 25.0746 12.2857 25.5398C12.8328 25.7832 13.3093 26.0418 13.8668 26.3664C14.112 26.5096 14.3572 26.6541 14.6013 26.8012C15.2062 26.0697 15.8262 25.3142 16.4693 24.5687C17.139 23.7929 17.8341 23.0297 18.5605 22.3223C19.2151 21.6023 19.9912 20.8606 20.8633 20.204C21.7331 19.5473 22.7012 18.9755 23.6983 18.6066C24.1945 18.4228 24.7207 18.2834 25.2678 18.2111C25.8138 18.1388 26.3817 18.1338 26.9473 18.2124C27.514 18.2897 28.0773 18.4444 28.6221 18.6649C29.1669 18.8855 29.692 19.1708 30.194 19.5004C30.2021 19.5054 30.2102 19.5105 30.2171 19.5169C30.6416 19.8667 31.0395 20.261 31.3922 20.7009C31.4825 20.8087 31.5657 20.924 31.6513 21.0369C31.7323 21.1535 31.8167 21.2676 31.8931 21.388C32.0504 21.6251 32.1938 21.8723 32.328 22.1258C32.8635 23.14 33.2128 24.2607 33.3828 25.3928C33.554 26.5261 33.5494 27.6721 33.3782 28.7636C33.2059 29.8539 32.8658 30.8934 32.3465 31.7897C32.2204 32.0052 32.0805 32.2245 31.9243 32.4388C31.767 32.653 31.59 32.8609 31.3969 33.0536C31.3483 33.1005 31.2997 33.15 31.2488 33.1956L31.0938 33.33C30.9863 33.4149 30.8787 33.4999 30.7653 33.5734C30.5398 33.723 30.3027 33.851 30.0598 33.9398C29.6931 34.0792 29.441 34.1008 29.2883 34.1033C29.1541 34.0919 29.0928 34.0577 29.0662 34.0145C29.013 33.9271 29.1033 33.7978 29.0188 33.7255C29.0778 33.7116 29.131 33.6976 29.1784 33.6837C29.2259 33.6697 29.271 33.6494 29.3091 33.6317C29.3473 33.6139 29.382 33.5949 29.4144 33.5772C29.4456 33.5582 29.4745 33.5379 29.5011 33.5176C29.6099 33.439 29.6897 33.3566 29.8273 33.2717C30.0205 33.1512 30.2738 32.9915 30.5248 32.7849C30.7758 32.5795 31.0244 32.3297 31.2245 32.0724C31.4258 31.8163 31.597 31.5311 31.7404 31.2458C31.8838 30.9606 31.9995 30.6741 32.0966 30.4117C32.535 29.2289 32.734 27.8204 32.6437 26.4158C32.5998 25.7135 32.4841 25.0124 32.2979 24.3456C32.1117 23.6775 31.8561 23.0437 31.5415 22.4732C31.4859 22.3781 31.4316 22.2767 31.3691 22.1765C31.3379 22.1271 31.3078 22.0751 31.2754 22.0244C31.243 21.9737 31.2095 21.923 31.176 21.871C31.0383 21.6682 30.8903 21.4603 30.7283 21.2676L30.6682 21.1941L30.6057 21.1231C30.5641 21.0762 30.5225 21.028 30.4808 20.9823C30.3941 20.8936 30.3108 20.8023 30.2229 20.7199C30.0621 20.5602 29.8956 20.4207 29.7371 20.2952C29.6052 20.2166 29.4907 20.1507 29.3843 20.0911C28.9552 19.8338 28.5111 19.6145 28.0542 19.4497C27.5973 19.2849 27.1289 19.172 26.657 19.1226C26.185 19.0719 25.7085 19.0833 25.2378 19.153C24.767 19.2227 24.3009 19.3508 23.8475 19.5245C22.9384 19.8731 22.0824 20.4017 21.2809 21.0128C20.8807 21.3183 20.4921 21.6466 20.115 21.9876C19.7379 22.3299 19.3724 22.6874 19.0162 23.0525C17.9417 24.1491 16.7839 25.5043 15.574 26.9584C15.4942 27.0547 15.4132 27.1511 15.3334 27.2474C16.8047 28.1488 18.2609 29.0907 19.7206 29.9806C20.6922 30.5727 21.6649 31.1432 22.6411 31.6528C23.6173 32.1599 24.5993 32.6124 25.5813 32.9218C25.6391 32.9433 25.7027 32.9674 25.7721 32.994C25.8427 33.0194 25.9179 33.046 25.9977 33.0752C26.0775 33.1056 26.1619 33.1322 26.2498 33.1614C26.2938 33.1753 26.3389 33.1905 26.384 33.2057C26.4291 33.2184 26.4765 33.2324 26.5228 33.2463C26.8975 33.3579 27.3105 33.4441 27.6748 33.4694C28.0125 33.4948 28.3144 33.4669 28.533 33.439C28.5608 33.4365 28.5874 33.4339 28.6128 33.4327C28.6256 33.4314 28.6383 33.4314 28.6499 33.4301C28.6626 33.4276 28.6753 33.4263 28.6869 33.4251C28.7343 33.42 28.7759 33.4174 28.8118 33.4187C28.8823 33.4213 28.9298 33.439 28.9459 33.477C28.9714 33.5379 28.8476 33.633 28.6915 33.728C28.6464 33.7445 28.5874 33.761 28.518 33.7788C28.4486 33.7978 28.3676 33.8092 28.282 33.8219C28.2392 33.8282 28.1953 33.8345 28.1502 33.8409C28.1051 33.8447 28.0588 33.8472 28.0125 33.851C27.9674 33.8535 27.9212 33.8574 27.8749 33.8612C27.8298 33.8637 27.7835 33.8637 27.7396 33.865C27.7072 33.8662 27.6702 33.8688 27.6297 33.87C27.61 33.8713 27.5892 33.8726 27.5672 33.8738C27.5453 33.8738 27.5233 33.8738 27.5013 33.8738C27.4134 33.8726 27.3209 33.8738 27.2434 33.8726C27.0884 33.8637 26.9878 33.8548 27.0803 33.8434C27.13 33.8472 27.1798 33.8523 27.2295 33.8561C27.2792 33.8599 27.3301 33.8599 27.3799 33.8624C27.3382 33.8586 27.2954 33.8548 27.2515 33.851C27.2075 33.8459 27.1624 33.8396 27.1161 33.8345C27.0699 33.8295 27.0225 33.8244 26.9739 33.8193C26.9265 33.8142 26.8779 33.8054 26.8281 33.799C26.7298 33.7851 26.6292 33.7749 26.5309 33.7559C26.4823 33.7483 26.4326 33.7395 26.384 33.7318C26.3343 33.7242 26.2868 33.7166 26.2394 33.7065C26.1457 33.6887 26.0543 33.671 25.9688 33.6545C25.8843 33.6355 25.8045 33.619 25.734 33.6038C25.6981 33.5975 25.6646 33.5899 25.6333 33.5835C25.6021 33.5772 25.5732 33.5708 25.5477 33.5645C25.4957 33.5531 25.454 33.5442 25.4263 33.5392C24.671 33.3274 23.9377 33.0371 23.2206 32.7139C22.5035 32.3881 21.8014 32.0293 21.1109 31.6502C19.7275 30.8934 18.3835 30.0643 17.0372 29.2378C16.2958 28.7826 15.5532 28.325 14.806 27.8775C14.4451 28.3098 14.0785 28.7472 13.7049 29.1833C13.0618 29.9312 12.399 30.6804 11.6958 31.3878C11.3974 31.6895 11.0851 31.9799 10.7578 32.2549C10.4316 32.5313 10.0938 32.795 9.74223 33.0447L9.55948 33.169C9.49818 33.2108 9.43687 33.2539 9.37673 33.2894L9.19514 33.4022L9.15003 33.4301L9.10839 33.458L9.06675 33.4846L9.01933 33.5138C8.76602 33.6735 8.50809 33.8168 8.24438 33.9486C7.71695 34.211 7.16986 34.4266 6.60079 34.5825C6.03172 34.7372 5.43952 34.8348 4.83113 34.8234C4.67961 34.8208 4.52693 34.8094 4.3731 34.7917C4.21926 34.7739 4.06543 34.7473 3.91275 34.7105C3.60624 34.6395 3.3032 34.5254 3.0152 34.3695C2.87177 34.2909 2.73298 34.2009 2.59996 34.1008C2.46695 34.0006 2.34203 33.889 2.22406 33.7699C2.10608 33.6507 1.99851 33.5214 1.89673 33.3883C1.79725 33.2539 1.70588 33.1145 1.62376 32.9712C1.45952 32.6834 1.33113 32.3817 1.22703 32.0787C1.21315 32.0432 1.20043 31.9989 1.1877 31.9583L1.14954 31.8341C1.13103 31.7555 1.11715 31.6807 1.0998 31.6046C1.08476 31.5285 1.06857 31.4525 1.05238 31.3764C1.04428 31.3384 1.03618 31.2991 1.02924 31.2623L1.01074 31.1508ZM1.77875 30.6386L1.79031 30.7172L1.83889 31.0126C1.85277 31.1127 1.87591 31.2065 1.89557 31.3029L1.92564 31.4474L1.94068 31.5197C1.94646 31.5425 1.94877 31.5691 1.95687 31.5894L1.99735 31.72C2.01123 31.7631 2.02858 31.81 2.04362 31.8543C2.05866 31.9 2.07716 31.9431 2.09451 31.9875L2.12111 32.0534L2.15003 32.118C2.30039 32.4641 2.49471 32.7811 2.7376 33.0422C2.97934 33.3046 3.2685 33.51 3.58542 33.652C3.90234 33.794 4.24818 33.8726 4.5998 33.903C4.95257 33.9321 5.31229 33.9144 5.67085 33.8612C6.38797 33.7534 7.09699 33.5163 7.77015 33.1994C7.93787 33.1195 8.10442 33.0346 8.26751 32.9433C8.34847 32.8977 8.42944 32.8508 8.50925 32.8026C8.54973 32.7785 8.58906 32.7544 8.62838 32.7291L8.75214 32.6492L8.99619 32.4984C9.076 32.4476 9.15234 32.3931 9.23099 32.3412C9.30964 32.2892 9.38598 32.2321 9.46232 32.1763L9.57683 32.0927L9.69018 32.0052C9.7642 31.9456 9.8417 31.8898 9.91457 31.8277L10.1366 31.6439C10.2824 31.5171 10.4281 31.3929 10.5704 31.2611C10.7138 31.1317 10.8526 30.9961 10.9937 30.863C11.1325 30.7261 11.2725 30.5904 11.4078 30.4497C11.9549 29.8919 12.4812 29.305 12.9982 28.7091C13.3602 28.292 13.7164 27.8686 14.0715 27.4427C13.7049 27.2284 13.3371 27.018 12.9669 26.8126C12.2764 26.4298 11.5755 26.0659 10.8607 25.7363C10.1459 25.4105 9.41605 25.1164 8.66655 24.906C8.26982 24.7944 7.87309 24.7082 7.48909 24.6575C7.10971 24.608 6.74305 24.5928 6.40416 24.6169C5.7414 24.7475 5.10178 24.9237 4.50727 25.1798C3.90928 25.4371 3.35525 25.7781 2.90416 26.2282C2.67862 26.4538 2.47736 26.7023 2.31427 26.9774C2.15003 27.2525 2.02049 27.5492 1.92217 27.8585L1.88747 27.9751C1.87591 28.0144 1.86318 28.0524 1.85509 28.093L1.80072 28.3326C1.78337 28.4125 1.77297 28.4949 1.75909 28.576C1.75215 28.6166 1.74521 28.6571 1.73942 28.6977L1.72786 28.8219C1.68737 29.1516 1.69084 29.4875 1.70125 29.8247L1.72207 30.1214L1.7267 30.1949C1.72901 30.219 1.73248 30.2443 1.7348 30.2684L1.75215 30.4167L1.7695 30.5651L1.77875 30.6386Z" fill="white"/>
</mask>
<g mask="url(#mask1_415_271)">
<path fill-rule="evenodd" clip-rule="evenodd" d="M-3.56598 13.3132H37.9267V39.6663H-3.56598V13.3132Z" fill="black"/>
</g>
<mask id="mask2_415_271" style="mask-type:alpha" maskUnits="userSpaceOnUse" x="17" y="7" width="13" height="12">
<path d="M22.3403 9.95443C22.6503 10.246 23.0494 10.4881 23.1373 10.9737C24.2893 10.8279 25.5743 10.44 26.9033 10.3423C27.6563 10.2942 29.3403 10.1484 29.3843 10.8761C29.3843 11.605 28.3653 11.4098 27.9223 11.4592C26.3712 11.5568 24.6883 12.0424 23.2703 12.2845C22.9163 13.6929 22.4733 15.0519 21.6753 16.2664C21.0993 17.1399 20.2572 18.111 19.4603 18.3062C18.5743 18.5978 17.9092 17.9664 17.8213 16.8496C17.7774 15.8785 18.0874 14.9074 18.3534 14.0821C18.8854 12.4797 19.5494 10.8292 20.3474 9.46889C20.8344 8.59543 21.8534 6.89541 22.7845 8.10989C22.8284 8.93518 22.6064 9.46889 22.3403 9.95443ZM19.3284 16.4617C20.3914 15.6845 21.2334 14.2279 21.6764 12.5773C21.1004 12.5773 20.8344 12.5773 20.3914 12.5773C19.9484 13.7906 19.4615 14.9074 19.3284 16.4617Z" fill="white"/>
</mask>
<g mask="url(#mask2_415_271)">
<path fill-rule="evenodd" clip-rule="evenodd" d="M13.3994 2.84509H33.802V23.2192H13.3994V2.84509Z" fill="black"/>
</g>
<mask id="mask3_415_271" style="mask-type:alpha" maskUnits="userSpaceOnUse" x="27" y="8" width="9" height="8">
<path d="M32.5292 9.22671C32.9722 8.93514 33.5482 8.64356 34.1242 8.54721C35.0102 8.49904 36.2062 8.88696 35.5862 9.66408C35.2762 10.1014 34.4782 9.80986 34.1682 9.90748C33.0601 10.2472 31.9532 11.5099 31.0233 12.7231C30.6693 13.1605 30.1812 13.7918 29.7382 14.4713C29.4283 14.9568 28.7192 16.1713 27.8772 15.7339C26.9473 15.2484 27.6551 12.8689 27.8772 11.9472C28.1432 10.8304 28.3202 9.76169 29.0732 9.71352C30.1361 9.71352 29.5601 11.4617 29.3831 12.4328C30.3142 11.5086 31.2893 10.0026 32.5292 9.22671Z" fill="white"/>
</mask>
<g mask="url(#mask3_415_271)">
<path fill-rule="evenodd" clip-rule="evenodd" d="M22.9922 3.70117H40.1753V20.6693H22.9922V3.70117Z" fill="black"/>
</g>
<mask id="mask4_415_271" style="mask-type:alpha" maskUnits="userSpaceOnUse" x="35" y="0" width="11" height="21">
<path d="M39.697 16.5098C40.982 14.8592 41.9119 13.2568 43.1519 11.411C43.4179 10.9737 43.6839 10.5857 43.9939 10.1002C44.2599 9.71228 44.5699 9.03151 45.0568 9.08095C45.3229 9.08095 45.5438 9.32435 45.5438 9.80989C45.4998 10.2954 45.1899 10.4894 45.1008 10.6352C43.5497 13.4026 42.2659 15.6845 40.3609 18.1122C39.7409 18.8893 38.6062 20.1482 37.5872 20.2458C35.8569 20.4474 35.3399 18.4279 35.4671 16.4008C35.5747 15.2763 35.651 13.8691 36.0073 12.4392C36.7209 8.73106 38.4235 4.31558 39.2459 2.61429C39.6889 1.69139 40.3181 0.438876 41.1601 0.0509521C41.4701 -0.0948362 41.957 0.0991256 42.1352 0.294355C42.7112 1.0233 42.0022 2.96545 41.6922 3.83891C40.7622 6.51001 39.6542 9.08349 38.4142 11.4617C37.9273 12.3846 37.6173 12.8702 37.3952 14.181C37.3062 14.6665 37.2183 15.1521 37.1743 15.5894C37.0853 16.6087 36.9974 17.775 37.3952 18.5027C38.368 18.2086 39.0758 17.3351 39.697 16.5098Z" fill="white"/>
</mask>
<g mask="url(#mask4_415_271)">
<path fill-rule="evenodd" clip-rule="evenodd" d="M31.0311 -4.84204H49.9615V25.1017H31.0311V-4.84204Z" fill="black"/>
</g>
<mask id="mask5_415_271" style="mask-type:alpha" maskUnits="userSpaceOnUse" x="41" y="7" width="16" height="10">
<path d="M51.2148 13.4989C52.7658 12.576 54.2718 11.5568 55.6007 10.3423C55.8668 10.0989 56.1328 9.71097 56.5758 9.80858C56.6197 9.9062 56.7088 10.0025 56.7979 10.0507C56.7539 10.8278 56.0449 11.4097 55.4689 11.8953C54.4059 12.8663 53.1209 13.8374 51.881 14.6627C51.261 15.0506 50.552 15.5362 49.932 15.7314C47.938 16.4109 47.185 14.3229 47.5841 12.1387C46.9641 12.8676 46.3441 13.7411 45.6351 14.5664C45.1031 15.1977 44.1292 16.5085 43.2432 16.6061C42.3132 16.7519 41.8702 16.1206 41.9581 15.0037C42.0472 13.6929 42.7111 12.5279 43.2871 11.2652C43.8631 10.0025 44.4391 8.88568 45.1482 8.15801C45.4142 7.9146 46.0342 7.42906 46.3441 7.42906C47.5841 7.33145 47.6731 8.88568 47.2741 10.0025C47.2741 10.0507 47.2301 10.0507 47.2301 10.0507C47.5841 9.90493 47.8061 9.22543 48.4261 9.2736C50.1541 9.37122 48.5151 13.0616 49.1351 14.2748C49.9297 14.3737 50.5948 13.8387 51.2148 13.4989ZM46.4748 8.88695C46.4748 8.83877 46.4309 8.78933 46.3418 8.83877C45.1019 10.393 44.2159 12.3352 43.5508 14.5194C44.5259 13.8399 45.3668 12.4797 46.2088 11.4604C46.0318 10.5375 46.5627 9.9062 46.4748 8.88695Z" fill="white"/>
</mask>
<g mask="url(#mask5_415_271)">
<path fill-rule="evenodd" clip-rule="evenodd" d="M37.5295 2.58264H61.2156V21.4688H37.5295V2.58264Z" fill="black"/>
</g>
<mask id="mask6_415_271" style="mask-type:alpha" maskUnits="userSpaceOnUse" x="35" y="20" width="9" height="9">
<path d="M40.2209 21.3791C40.6292 21.0331 41.1682 20.6692 41.7291 20.4993C42.6024 20.3371 43.8296 20.5665 43.2987 21.4172C43.0385 21.89 42.2161 21.705 41.92 21.8419C40.8582 22.3223 39.897 23.7168 39.1047 25.0403C38.8005 25.5195 38.3853 26.2079 38.0198 26.9394C37.7642 27.4604 37.1928 28.756 36.3114 28.4315C35.3364 28.0702 35.7828 25.621 35.9031 24.6778C36.0466 23.5368 36.1067 22.4542 36.8481 22.3084C37.9018 22.1715 37.519 23.978 37.4484 24.9643C38.2708 23.9273 39.0746 22.3097 40.2209 21.3791Z" fill="white"/>
</mask>
<g mask="url(#mask6_415_271)">
<path fill-rule="evenodd" clip-rule="evenodd" d="M31.2787 15.6088H47.8452V33.3249H31.2787V15.6088Z" fill="black"/>
</g>
<mask id="mask7_415_271" style="mask-type:alpha" maskUnits="userSpaceOnUse" x="44" y="17" width="8" height="12">
<path d="M47.4765 24.428C48.691 22.9486 49.2115 22.0409 50.5994 20.6667C51.0123 20.3688 51.3964 20.4461 51.7179 20.9418C51.8683 21.5085 51.4021 21.6213 51.0817 21.956C49.6417 23.462 49.1918 24.6397 47.7078 26.3512C46.8149 27.1511 46.7628 28.1539 45.2592 28.2527C43.7082 27.9181 43.9534 24.9922 44.3455 23.6712C43.8331 23.0551 44.3987 20.8822 45.4223 21.2853C46.0793 21.5896 45.8017 23.14 45.6999 23.836C45.5414 24.8337 45.4049 25.6324 45.5426 26.4919C46.2042 26.2662 46.801 25.1253 47.4765 24.428ZM46.0827 17.8891C46.2123 18.2631 46.0238 18.58 45.7658 18.6624C45.59 18.6852 45.4373 18.5103 45.2129 18.49C44.9388 18.4279 44.652 18.6611 44.5768 18.3772C44.32 17.24 45.8988 17.4251 46.0827 17.8891Z" fill="white"/>
</mask>
<g mask="url(#mask7_415_271)">
<path fill-rule="evenodd" clip-rule="evenodd" d="M39.6332 12.6852H56.1647V33.0947H39.6332V12.6852Z" fill="black"/>
</g>
<mask id="mask8_415_271" style="mask-type:alpha" maskUnits="userSpaceOnUse" x="48" y="18" width="12" height="12">
<path d="M60 20.2541V20.5804C59.8418 21.0566 58.9954 21.0215 58.6103 21.1154C57.057 21.4171 55.4111 22.1296 54.0081 22.5606C53.8045 24.0274 53.5072 25.4573 52.8352 26.7872C52.3494 27.7443 51.6069 28.8358 50.8238 29.1363C49.9621 29.547 49.2219 28.9981 49.0102 27.8825C48.8587 26.9089 49.0657 25.8884 49.2427 25.02C49.6036 23.3339 50.0928 21.5807 50.7487 20.1038C51.1442 19.158 51.9863 17.3097 53.0573 18.4113C53.1938 19.2379 53.0284 19.8058 52.8144 20.3307C53.1591 20.5842 53.5882 20.7756 53.7305 21.2548C54.8767 20.9557 56.1305 20.3953 57.4606 20.1228C58.1854 19.9802 59.7678 19.634 60 20.2541ZM50.4873 27.2917C51.475 26.3676 52.1644 24.788 52.4304 23.0639C51.8498 23.14 51.5814 23.1742 51.1338 23.2325C50.8204 24.5154 50.4514 25.7058 50.4873 27.2917Z" fill="white"/>
</mask>
<g mask="url(#mask8_415_271)">
<path fill-rule="evenodd" clip-rule="evenodd" d="M44.54 13.2295H64.4436V34.1142H44.54V13.2295Z" fill="black"/>
</g>
<defs>
<linearGradient id="paint0_linear_415_271" x1="25.5765" y1="19.9923" x2="1.5028" y2="25.4607" gradientUnits="userSpaceOnUse">
<stop stop-color="#1D71B8"/>
<stop offset="1" stop-color="#2FAB67"/>
</linearGradient>
</defs>
</svg>
