<svg width="27" height="32" viewBox="0 0 27 32" fill="none" xmlns="http://www.w3.org/2000/svg">
<path d="M26.1818 13.0909C26.1818 23.2727 13.0909 32 13.0909 32C13.0909 32 0 23.2727 0 13.0909C5.17357e-08 9.61898 1.37922 6.28926 3.83424 3.83424C6.28926 1.37922 9.61898 0 13.0909 0C16.5628 0 19.8926 1.37922 22.3476 3.83424C24.8026 6.28926 26.1818 9.61898 26.1818 13.0909Z" fill="#1D71B8"/>
<path d="M13.0909 17.4545C15.5009 17.4545 17.4546 15.5008 17.4546 13.0909C17.4546 10.6809 15.5009 8.72723 13.0909 8.72723C10.681 8.72723 8.72729 10.6809 8.72729 13.0909C8.72729 15.5008 10.681 17.4545 13.0909 17.4545Z" stroke="white" stroke-width="1.3" stroke-linecap="round" stroke-linejoin="round"/>
</svg>
